<svg width="548" height="187" viewBox="0 0 548 187" fill="none" xmlns="http://www.w3.org/2000/svg">
<path d="M13.1243 23.3719V15.2336V14.8246C13.1293 11.6575 13.5089 11.3253 17.1812 11.3253C42.8573 11.3202 68.5335 11.3202 94.2096 11.3253C98 11.3253 98.349 11.6321 98.349 14.9492V23.4966C98.349 20.1789 97.9995 19.8726 94.2096 19.8726C68.5335 19.8675 42.8573 19.8675 17.1812 19.8726C13.5084 19.8721 13.1283 20.2043 13.1243 23.3719Z" fill="#C3792C"/>
<path d="M98.348 14.9487V23.4961C98.348 20.1784 97.999 19.8721 94.2086 19.8721C68.5325 19.867 42.8563 19.867 17.1802 19.8721C16.2959 19.8721 15.6025 19.8914 15.0601 19.9647V11.4173C15.6025 11.3441 16.2959 11.3247 17.1802 11.3247C42.8563 11.3197 68.5325 11.3197 94.2086 11.3247C97.9995 11.3247 98.348 11.631 98.348 14.9487Z" fill="#C3792C"/>
<path d="M15.0606 11.4174V19.9647C14.765 20.0049 14.5147 20.0609 14.3016 20.1387V11.5914C14.5147 11.5135 14.765 11.4576 15.0606 11.4174ZM14.3016 11.5914V20.1387C14.1746 20.1835 14.0526 20.2424 13.9388 20.3142V11.7669C14.0457 11.6982 14.1662 11.6407 14.3016 11.5914Z" fill="#C3792C"/>
<path d="M13.9403 11.7664V20.3137C13.8242 20.3865 13.72 20.4767 13.6315 20.5813V12.034C13.7185 11.9312 13.8203 11.8417 13.9403 11.7664ZM13.6315 12.034V20.5813C13.3247 20.9441 13.197 21.4885 13.1502 22.3005V13.7531C13.197 12.9416 13.3247 12.3972 13.6315 12.034ZM13.1497 13.7536V22.301C13.1309 22.6575 13.1221 23.0144 13.1232 23.3714C13.1212 28.7573 13.1197 34.1436 13.1197 39.53V30.9826C13.1197 25.5963 13.1202 20.2094 13.1232 14.8236C13.1221 14.4667 13.1309 14.11 13.1497 13.7536Z" fill="#C3792C"/>
<path d="M111.463 11.5974V20.1448C111.463 20.3646 111.453 20.5844 111.435 20.8047C111.287 22.5391 111.241 24.2791 111.241 26.0409V17.4936C111.241 15.7322 111.287 13.9922 111.435 12.2573C111.453 12.037 111.463 11.8167 111.463 11.5974Z" fill="#C3792C"/>
<path d="M111.463 11.5974V20.1448C111.463 20.3061 111.458 20.4679 111.448 20.6296V12.0823C111.458 11.92 111.463 11.7582 111.463 11.5974ZM111.448 12.0818V20.6291L111.436 20.8052C111.402 21.2013 111.373 21.5978 111.35 21.9947V13.4473C111.374 13.0495 111.403 12.6537 111.436 12.2578L111.448 12.0818ZM111.349 13.4473V21.9947C111.273 23.3419 111.237 24.6911 111.241 26.0404V17.4931C111.241 16.1342 111.269 14.7879 111.349 13.4473Z" fill="#C3792C"/>
<path d="M13.1243 23.7805C13.1222 28.9537 13.1207 34.1269 13.1207 39.3001V30.9659C13.1207 25.721 13.1212 20.4765 13.1243 15.2332V23.7805Z" fill="#C3792C"/>
<path d="M13.1497 13.7536V22.301C13.1309 22.6575 13.1221 23.0144 13.1232 23.3714C13.1212 28.7573 13.1197 34.1436 13.1197 39.53V30.9826C13.1197 25.5963 13.1202 20.2094 13.1232 14.8236C13.1221 14.4667 13.1309 14.11 13.1497 13.7536Z" fill="#C3792C"/>
<path d="M98.348 14.9487V23.4961C98.348 29.8781 98.3322 36.2601 98.3113 42.6381V34.0907C98.3322 27.7128 98.348 21.3308 98.348 14.9487Z" fill="#C3792C"/>
<path d="M98.348 14.9487V23.4961C98.348 29.8781 98.3322 36.2601 98.3113 42.6381V34.0907C98.3322 27.7128 98.348 21.3308 98.348 14.9487Z" fill="#C3792C"/>
<path d="M13.1207 39.4898V30.9424L13.1212 34.1665V42.7134L13.1207 39.4898Z" fill="#C3792C"/>
<path d="M13.1212 34.1665V42.7134L13.1207 39.4898V30.9424L13.1212 34.1665Z" fill="#C3792C"/>
<path d="M214.904 45.9675V45.882V45.7914V45.6968V45.6017V45.506V45.4119V45.3213V45.2359V44.3216V43.3529V42.3476V41.3239V40.3008V39.2965V38.3298V37.4181H215.074C215.266 37.4196 215.459 37.4217 215.652 37.4267V45.9756C215.459 45.9705 215.266 45.9685 215.074 45.967L214.904 45.9675Z" fill="#C3792C"/>
<path d="M219.13 46.8919V55.4387C219.13 53.2414 219.124 51.0608 219.106 48.8782C219.087 46.4747 218.553 46.0626 215.732 45.9777C215.513 45.9718 215.294 45.9682 215.075 45.967C214.386 45.967 213.917 45.9731 213.45 45.9731C176.383 45.9731 139.309 45.9771 102.241 45.9771C99.1238 45.9771 98.3073 45.2715 98.3118 42.6376V34.0902C98.3067 36.7241 99.1228 37.4303 102.241 37.4303C139.309 37.4303 176.383 37.4257 213.45 37.4257C213.917 37.4257 214.386 37.4196 215.075 37.4196C215.295 37.4206 215.513 37.4237 215.732 37.4303C218.553 37.5147 219.087 37.9274 219.106 40.3308C219.124 42.5134 219.13 44.6945 219.13 46.8919Z" fill="#C3792C"/>
<path d="M102.24 45.9777C99.1228 45.9777 98.3062 45.272 98.3108 42.6381V34.0907C98.3057 36.7246 99.1218 37.4303 102.24 37.4303C139.308 37.4303 176.381 37.4262 213.449 37.4262C213.877 37.4262 214.306 37.4206 214.904 37.4201V45.969C214.305 45.9695 213.876 45.9751 213.449 45.9751C176.381 45.9736 139.308 45.9777 102.24 45.9777Z" fill="#C3792C"/>
<path d="M219.13 46.8919V55.4387C219.13 53.2414 219.124 51.0608 219.106 48.8782C219.087 46.4747 218.553 46.0626 215.732 45.9777C215.513 45.9718 215.294 45.9682 215.075 45.967C214.386 45.967 213.917 45.9731 213.45 45.9731C176.383 45.9731 139.309 45.9771 102.241 45.9771C99.1238 45.9771 98.3073 45.2715 98.3118 42.6376V34.0902C98.3067 36.7241 99.1228 37.4303 102.241 37.4303C139.309 37.4303 176.383 37.4257 213.45 37.4257C213.917 37.4257 214.386 37.4196 215.075 37.4196C215.295 37.4206 215.513 37.4237 215.732 37.4303C218.553 37.5147 219.087 37.9274 219.106 40.3308C219.124 42.5134 219.13 44.6945 219.13 46.8919Z" fill="#C3792C"/>
<path d="M215.652 45.9756V45.8505V45.7192V45.5839V45.4465V45.3096V45.1748V45.0456V44.9235V44.0479V43.1199V42.1558V41.1749V40.194V39.2303V38.3018V37.4268L215.732 37.4288C218.553 37.5138 219.086 37.9264 219.105 40.3293C219.123 42.5109 219.129 44.6925 219.13 46.8904V55.4372C219.129 53.2399 219.123 51.0593 219.105 48.8767C219.086 46.4732 218.553 46.0611 215.732 45.9761C215.705 45.977 215.678 45.9768 215.652 45.9756Z" fill="#C3792C"/>
<path d="M219.13 46.8919V55.4387C219.13 53.2414 219.124 51.0608 219.106 48.8782C219.087 46.4747 218.553 46.0626 215.732 45.9777C215.513 45.9718 215.294 45.9682 215.075 45.967C214.386 45.967 213.917 45.9731 213.45 45.9731C176.383 45.9731 139.309 45.9771 102.241 45.9771C99.1238 45.9771 98.3073 45.2715 98.3118 42.6376V34.0902C98.3067 36.7241 99.1228 37.4303 102.241 37.4303C139.309 37.4303 176.383 37.4257 213.45 37.4257C213.917 37.4257 214.386 37.4196 215.075 37.4196C215.295 37.4206 215.513 37.4237 215.732 37.4303C218.553 37.5147 219.087 37.9274 219.106 40.3308C219.124 42.5134 219.13 44.6945 219.13 46.8919Z" fill="#C3792C"/>
<path d="M13.1288 53.508V62.0553C13.1239 55.608 13.121 49.1607 13.1202 42.7134V34.1665C13.1212 40.6137 13.1242 47.0613 13.1288 53.508Z" fill="#C3792C"/>
<path d="M13.1288 53.508V62.0553C13.1239 55.608 13.121 49.1607 13.1202 42.7134V34.1665C13.1212 40.6137 13.1242 47.0613 13.1288 53.508Z" fill="#C3792C"/>
<path d="M13.2682 55.4845V64.0319C13.2158 63.3211 13.1298 62.6857 13.1298 62.0548V53.5074C13.1288 54.1388 13.2158 54.7738 13.2682 55.4845Z" fill="#C3792C"/>
<path d="M13.2682 55.4845V64.0319C13.2158 63.3211 13.1298 62.6857 13.1298 62.0548V53.5074C13.1288 54.1388 13.2158 54.7738 13.2682 55.4845Z" fill="#C3792C"/>
<path d="M219.123 55.4845V64.0319H13.2682V55.4845H219.123Z" fill="#C3792C"/>
<path d="M219.123 55.4845V64.0319H13.2682V55.4845H219.123Z" fill="#C3792C"/>
<path d="M219.13 46.8919V55.4387C219.13 58.265 219.123 61.1171 219.123 64.0324V55.485C219.123 52.5693 219.13 49.7166 219.13 46.8919Z" fill="#C3792C"/>
<path d="M219.13 46.8919V55.4387C219.13 58.265 219.123 61.1171 219.123 64.0324V55.485C219.123 52.5693 219.13 49.7166 219.13 46.8919Z" fill="#C3792C"/>
<path d="M219.123 66.9523V75.4996H13.1238V66.9523H219.123Z" fill="#C3792C"/>
<path d="M219.123 66.9523V75.4996H13.1238V66.9523H219.123Z" fill="#C3792C"/>
<path d="M0.127705 89.5981V98.0015C0.127705 72.2511 0.0854735 46.5002 0 20.7513V12.2039C0.0859823 38.0016 0.127705 63.7994 0.127705 89.5981Z" fill="#C3792C"/>
<path d="M0.127705 89.5981V98.1455C0.127705 72.3462 0.0859823 46.5485 0 20.7507V12.2034C0.0859823 38.0016 0.127705 63.7994 0.127705 89.5981Z" fill="#C3792C"/>
<path d="M232.113 110.303V101.756C232.113 80.8554 232.146 59.9551 232.276 39.0568V47.6042C232.147 68.5025 232.113 89.4028 232.113 110.303Z" fill="#C3792C"/>
<path d="M232.276 39.0568V47.6042C232.147 68.5035 232.114 89.4038 232.114 110.303V101.756C232.113 80.8554 232.147 59.9551 232.276 39.0568Z" fill="#C3792C"/>
<path d="M219.123 66.9522V162.73C219.123 166.394 218.871 166.611 214.588 166.611H17.6518C13.3751 166.611 13.1243 166.393 13.1243 162.725V69.1593V66.9517L219.123 66.9522Z" fill="#EBC64E"/>
<path d="M219.123 162.729V171.277C219.123 174.941 218.871 175.158 214.588 175.158H17.6518C13.3751 175.158 13.1243 174.94 13.1243 171.272V162.724C13.1243 166.393 13.3756 166.611 17.6518 166.611H214.588C218.871 166.611 219.123 166.394 219.123 162.729Z" fill="#C3792C"/>
<path d="M219.123 162.729V171.277C219.123 171.828 219.116 172.301 219.091 172.708V164.161C219.116 163.755 219.123 163.281 219.123 162.729Z" fill="#C3792C"/>
<path d="M219.092 164.162V172.709C219.043 173.529 218.918 174.076 218.612 174.44V165.893C218.918 165.528 219.043 164.982 219.092 164.162ZM218.612 165.893V174.44C218.524 174.545 218.42 174.635 218.304 174.707V166.16C218.424 166.084 218.525 165.996 218.612 165.893Z" fill="#C3792C"/>
<path d="M218.304 166.16V174.707C218.191 174.78 218.07 174.839 217.943 174.883V166.336C218.078 166.286 218.199 166.229 218.304 166.16ZM217.943 166.336V174.883C217.727 174.962 217.473 175.018 217.172 175.059V166.511C217.473 166.47 217.727 166.414 217.943 166.336ZM217.172 166.511V175.059C216.537 175.143 215.699 175.159 214.588 175.159H17.6518C13.3751 175.159 13.1243 174.941 13.1243 171.272V162.725C13.1243 166.394 13.3756 166.611 17.6518 166.611H214.588C215.698 166.611 216.537 166.596 217.172 166.511Z" fill="#C3792C"/>
<path d="M232.276 39.0568C232.015 81.2319 232.148 123.412 232.148 165.591C232.148 171.387 228.107 176.192 222.07 177.503C220.84 177.768 219.516 177.822 218.24 177.822C199.383 177.826 180.532 177.826 161.678 177.826C153.187 177.825 144.689 177.825 136.199 177.825C95.4622 177.825 54.7336 177.84 14.0014 177.925C6.82618 177.925 -0.014751 172.082 0.00610862 165.781C0.170442 114.591 0.170449 63.3959 0.000519093 12.2049C-0.0198317 5.90022 6.7051 0 14.0548 0C28.0348 0.119561 41.9024 0.179098 55.77 0.179098C69.637 0.179098 83.5041 0.120071 97.3696 0.0045803C104.798 0.0045803 111.966 5.97094 111.436 12.2588C111.051 16.7701 111.359 21.3277 111.359 26.1778H114.297C132.829 26.1778 151.364 26.2221 169.897 26.2221C185.706 26.2221 201.514 26.19 217.322 26.072C225.633 26.0699 232.322 31.9605 232.276 39.0568ZM219.123 69.1639V66.9517H13.1238V162.725C13.1238 166.394 13.3751 166.612 17.6513 166.612H214.587C218.871 166.612 219.122 166.394 219.122 162.73L219.123 69.1639ZM219.123 55.4845C219.123 52.5693 219.13 49.7166 219.13 46.8914C219.13 44.694 219.124 42.5134 219.106 40.3308C219.087 37.9273 218.553 37.5147 215.732 37.4303C215.513 37.4237 215.295 37.4206 215.075 37.4196C214.386 37.4196 213.917 37.4257 213.45 37.4257C176.383 37.4257 139.309 37.4303 102.241 37.4303C99.1238 37.4303 98.3073 36.7241 98.3119 34.0902C98.3327 27.7122 98.348 21.3302 98.348 14.9477C98.348 11.63 97.9995 11.3237 94.2091 11.3237C81.3693 11.3207 68.533 11.3202 55.6947 11.3202C42.8568 11.3202 30.0195 11.3207 17.1807 11.3237C13.5079 11.3237 13.1288 11.6559 13.1238 14.823C13.1212 21.2697 13.1197 27.7173 13.1202 34.165C13.1207 40.6126 13.1237 47.0598 13.1288 53.5069C13.1288 54.1378 13.2163 54.7728 13.2672 55.483C81.8953 55.4845 150.314 55.4845 219.123 55.4845Z" fill="#D88E40"/>
<path d="M55.6946 11.3212C68.5325 11.3212 81.3703 11.3217 94.2091 11.3248C97.999 11.3248 98.348 11.6316 98.348 14.9487C98.348 21.3308 98.3322 27.7128 98.3113 34.0907C98.3062 36.7246 99.1223 37.4303 102.241 37.4303C139.308 37.4303 176.383 37.4262 213.45 37.4262C213.917 37.4262 214.386 37.4201 214.854 37.4201C215.147 37.4195 215.44 37.4232 215.733 37.4313C218.553 37.5163 219.087 37.9294 219.106 40.3318C219.124 42.5134 219.13 44.695 219.13 46.8924C219.13 49.7181 219.122 52.5703 219.122 55.4856H13.2677C13.2153 54.7748 13.1293 54.1393 13.1293 53.5085C13.1193 40.6138 13.1175 27.7192 13.1237 14.8246C13.1283 11.6575 13.5084 11.3243 17.1802 11.3243C30.0195 11.3217 42.8578 11.3212 55.6946 11.3212Z" fill="#DFAA45"/>
<path d="M232.148 165.59V174.138C232.148 179.933 228.107 184.739 222.07 186.049C220.84 186.315 219.516 186.369 218.24 186.369C199.383 186.373 180.532 186.373 161.678 186.373L136.199 186.372C95.4622 186.372 54.7336 186.387 14.0014 186.472C6.82618 186.472 -0.0147543 180.629 0.00610532 174.328V165.78C-0.0147543 172.082 6.82618 177.924 14.0014 177.924C54.7336 177.839 95.4622 177.825 136.199 177.825C144.69 177.825 153.188 177.825 161.678 177.826C180.532 177.826 199.383 177.826 218.24 177.821C219.516 177.821 220.84 177.768 222.07 177.502C228.106 176.191 232.148 171.386 232.148 165.59Z" fill="#C3792C"/>
<path d="M232.148 165.59V174.138C232.148 174.388 232.14 174.637 232.125 174.883V166.337C232.14 166.09 232.148 165.841 232.148 165.59ZM232.125 166.337V174.883C231.966 177.499 230.978 179.885 229.355 181.796V173.248C230.978 171.336 231.966 168.952 232.125 166.337ZM229.355 173.248V181.796C228.556 182.734 227.621 183.548 226.581 184.21V175.663C227.621 175.001 228.556 174.187 229.355 173.248Z" fill="#C3792C"/>
<path d="M226.582 175.663V184.21C225.765 184.731 224.895 185.162 223.985 185.494V176.947C224.894 176.614 225.765 176.184 226.582 175.663Z" fill="#C3792C"/>
<path d="M223.985 176.947V185.494C223.373 185.718 222.734 185.904 222.07 186.049C221.772 186.113 221.472 186.166 221.169 186.207V177.659C221.472 177.618 221.772 177.566 222.07 177.502C222.734 177.358 223.373 177.171 223.985 176.947Z" fill="#C3792C"/>
<path d="M221.17 177.659V186.206C220.207 186.338 219.21 186.369 218.24 186.369C199.383 186.373 180.532 186.373 161.678 186.373L136.199 186.372C95.4622 186.372 54.7336 186.387 14.0014 186.472C6.82618 186.472 -0.0147543 180.629 0.00610532 174.328V165.78C-0.0147543 172.082 6.82618 177.924 14.0014 177.924C54.7336 177.839 95.4622 177.825 136.199 177.825C144.69 177.825 153.188 177.825 161.678 177.826C180.532 177.826 199.383 177.826 218.24 177.821C219.21 177.821 220.207 177.79 221.17 177.659Z" fill="#C3792C"/>
<path d="M123.063 84.5215L189.959 107.335C191.172 107.748 191.783 108.992 191.369 110.204L177.19 151.783C176.776 152.995 175.533 153.606 174.321 153.192L107.424 130.379C106.212 129.965 105.601 128.722 106.015 127.51L120.194 85.9314C120.583 84.7903 121.851 84.108 123.063 84.5215Z" fill="#9DBE87"/>
<path d="M173.834 154.619L106.938 131.805C104.941 131.124 103.907 129.02 104.588 127.023L118.768 85.445C119.449 83.4481 121.553 82.4142 123.549 83.0952L190.446 105.909C192.443 106.59 193.476 108.694 192.795 110.691L178.616 152.269C177.935 154.266 175.76 155.275 173.834 154.619ZM122.577 85.9479C122.149 85.8019 121.766 85.9899 121.62 86.4178L107.441 127.996C107.295 128.424 107.483 128.807 107.911 128.953L174.807 151.766C175.235 151.912 175.617 151.724 175.763 151.296L189.943 109.718C190.089 109.29 189.901 108.907 189.473 108.761L122.577 85.9479Z" fill="#131313"/>
<path d="M167.523 143.709L118.599 127.025C119.742 123.673 117.91 119.943 114.558 118.8L121.903 97.2618C125.255 98.4049 128.985 96.5721 130.128 93.2201L179.052 109.905C177.909 113.257 179.742 116.986 183.093 118.13L175.748 139.668C172.325 138.5 168.667 140.357 167.523 143.709Z" fill="#D6F0C5"/>
<path d="M167.037 145.136L118.113 128.451C117.328 128.184 116.905 127.323 117.173 126.538C118.049 123.971 116.639 121.102 114.071 120.226C113.287 119.959 112.864 119.098 113.131 118.313L120.476 96.7754C120.744 95.9909 121.605 95.5679 122.389 95.8355C124.957 96.711 127.826 95.3011 128.701 92.7337C128.969 91.9492 129.83 91.5262 130.614 91.7938L179.538 108.478C180.323 108.746 180.746 109.607 180.478 110.391C179.603 112.958 181.012 115.828 183.58 116.703C184.364 116.971 184.787 117.832 184.52 118.616L177.175 140.154C176.907 140.939 176.046 141.361 175.262 141.094C172.695 140.218 169.825 141.628 168.95 144.196C168.682 144.98 167.822 145.403 167.037 145.136ZM120.37 126.036L166.655 141.821C168.247 139.02 171.499 137.422 174.689 137.873L181.158 118.903C178.357 117.311 176.759 114.059 177.21 110.869L130.925 95.0843C129.333 97.885 126.081 99.4829 122.891 99.032L116.446 117.931C119.223 119.595 120.82 122.846 120.37 126.036Z" fill="#131313"/>
<path d="M145.661 128.213C143.378 127.434 141.245 125.752 140.288 122.957C140.007 122.145 140.442 121.338 141.183 121.033C141.995 120.753 142.802 121.187 143.107 121.928C144.064 124.723 146.679 125.694 148.585 125.707C150.182 125.694 151.354 125.059 151.694 124.06C152.01 123.133 150.018 121.737 148.287 120.51C145.608 118.562 142.193 116.203 143.409 112.637C143.993 110.925 145.598 109.721 147.768 109.426C150.439 109.064 154.436 109.949 157.174 113.828C157.645 114.546 157.496 115.451 156.778 115.922C156.06 116.394 155.156 116.245 154.684 115.527C152.867 112.917 150.133 112.064 148.201 112.36C147.199 112.496 146.409 112.944 146.19 113.585C145.728 114.94 147.506 116.263 149.925 118.043C152.557 119.896 155.426 121.989 154.404 124.985C153.65 127.195 151.329 128.633 148.445 128.685C147.659 128.655 146.588 128.529 145.661 128.213Z" fill="#131313"/>
<path d="M150.82 112.617C150.035 112.349 149.612 111.488 149.88 110.704L150.95 107.566C151.218 106.781 152.078 106.358 152.863 106.626C153.647 106.893 154.07 107.754 153.803 108.539L152.733 111.677C152.441 112.533 151.604 112.884 150.82 112.617Z" fill="#131313"/>
<path d="M144.594 130.874C143.809 130.606 143.386 129.746 143.654 128.961L144.456 126.608C144.724 125.823 145.585 125.4 146.369 125.668C147.154 125.935 147.577 126.796 147.309 127.581L146.506 129.934C146.239 130.719 145.378 131.142 144.594 130.874Z" fill="#131313"/>
<path d="M127.281 112.073C127.163 112.419 127.114 112.786 127.137 113.151C127.161 113.516 127.256 113.874 127.418 114.202C127.579 114.531 127.804 114.824 128.079 115.066C128.353 115.308 128.673 115.493 129.02 115.611C129.366 115.73 129.733 115.778 130.098 115.755C130.464 115.731 130.821 115.636 131.149 115.475C131.478 115.313 131.771 115.089 132.013 114.814C132.255 114.539 132.44 114.219 132.559 113.873C132.797 113.173 132.748 112.407 132.422 111.743C132.096 111.079 131.519 110.573 130.82 110.334C130.12 110.095 129.354 110.144 128.69 110.47C128.027 110.797 127.52 111.373 127.281 112.073Z" fill="#AECD99"/>
<path d="M128.558 116.966C126.347 116.212 125.101 113.797 125.879 111.515C126.657 109.233 129.048 108.058 131.33 108.836C133.541 109.59 134.787 112.005 134.009 114.288C133.231 116.57 130.769 117.72 128.558 116.966ZM130.333 111.76C129.691 111.541 128.951 111.846 128.707 112.559C128.464 113.272 128.793 113.942 129.506 114.185C130.148 114.404 130.889 114.099 131.132 113.386C131.375 112.673 130.975 111.979 130.333 111.76Z" fill="#131313"/>
<path d="M164.652 124.817C164.413 125.517 164.462 126.283 164.788 126.947C165.114 127.61 165.691 128.117 166.39 128.356C167.09 128.594 167.856 128.545 168.52 128.219C169.184 127.893 169.69 127.317 169.929 126.617C170.168 125.917 170.119 125.151 169.793 124.487C169.466 123.824 168.89 123.317 168.19 123.078C167.49 122.84 166.724 122.889 166.061 123.215C165.397 123.541 164.89 124.117 164.652 124.817Z" fill="#AECD99"/>
<path d="M165.928 129.711C163.717 128.957 162.471 126.542 163.249 124.259C164.028 121.977 166.419 120.802 168.701 121.581C170.912 122.335 172.158 124.75 171.38 127.032C170.601 129.314 168.139 130.465 165.928 129.711ZM167.704 124.505C167.062 124.286 166.321 124.59 166.078 125.304C165.835 126.017 166.164 126.686 166.877 126.929C167.59 127.173 168.259 126.844 168.503 126.13C168.746 125.417 168.346 124.724 167.704 124.505Z" fill="#131313"/>
<path d="M46.5993 124.99L98.5584 77.0751C99.5001 76.2067 100.884 76.2627 101.753 77.2044L131.533 109.499C132.402 110.441 132.346 111.825 131.404 112.693L79.4448 160.608C78.5031 161.476 77.1189 161.42 76.2505 160.478L46.4699 128.184C45.6526 127.298 45.6576 125.858 46.5993 124.99Z" fill="#9DBE87"/>
<path d="M132.426 113.801L80.4664 161.715C78.9154 163.146 76.5729 163.051 75.1426 161.5L45.3621 129.205C43.9318 127.654 44.0266 125.312 45.5777 123.882L97.5368 75.9672C99.0878 74.5369 101.43 74.6318 102.861 76.1828L132.641 108.477C134.071 110.028 133.921 112.422 132.426 113.801ZM47.6209 126.097C47.2886 126.404 47.2713 126.83 47.5778 127.162L77.3584 159.457C77.6648 159.789 78.0907 159.806 78.4231 159.5L130.382 111.585C130.715 111.279 130.732 110.853 130.425 110.52L100.645 78.2261C100.338 77.8937 99.9124 77.8764 99.5801 78.1829L47.6209 126.097Z" fill="#131313"/>
<path d="M119.827 114.144L81.827 149.186C79.4262 146.582 75.2736 146.414 72.6701 148.815L57.2435 132.086C59.847 129.685 60.0152 125.533 57.6143 122.929L95.6143 87.8874C98.0151 90.4909 102.168 90.6591 104.771 88.2583L120.198 104.987C117.539 107.439 117.426 111.54 119.827 114.144Z" fill="#D6F0C5"/>
<path d="M120.849 115.252L82.8486 150.294C82.2393 150.856 81.281 150.817 80.7191 150.208C78.8802 148.213 75.6859 148.084 73.6918 149.923C73.0824 150.485 72.1242 150.446 71.5623 149.837L56.1356 133.108C55.5737 132.499 55.6125 131.54 56.2219 130.978C58.216 129.139 58.3454 125.945 56.5064 123.951C55.9445 123.342 55.9834 122.383 56.5927 121.822L94.5926 86.7796C95.202 86.2177 96.1603 86.2565 96.7222 86.8658C98.5611 88.86 101.755 88.9893 103.75 87.1504C104.359 86.5885 105.317 86.6273 105.879 87.2366L121.306 103.965C121.868 104.575 121.829 105.533 121.219 106.095C119.225 107.934 119.096 111.128 120.935 113.122C121.497 113.732 121.458 114.69 120.849 115.252ZM81.8024 147.159L117.753 114.007C116.051 111.271 116.197 107.651 118.115 105.063L104.527 90.3281C101.792 92.0303 98.172 91.8837 95.5834 89.9659L59.633 123.118C61.3353 125.853 61.1887 129.473 59.2708 132.062L72.8074 146.741C75.5937 145.094 79.2139 145.241 81.8024 147.159Z" fill="#131313"/>
<path d="M95.7785 125.968C94.0059 127.603 91.5095 128.675 88.5966 128.183C87.7491 128.043 87.2469 127.276 87.3325 126.479C87.4734 125.632 88.2403 125.13 89.0367 125.215C91.9497 125.706 94.0504 123.872 94.9711 122.203C95.7214 120.793 95.7221 119.46 95.007 118.685C94.3429 117.965 92.166 119.05 90.2617 119.986C87.2711 121.411 83.569 123.287 81.0149 120.518C79.789 119.188 79.4961 117.203 80.2723 115.155C81.2276 112.634 83.9123 109.543 88.6274 108.988C89.4835 108.916 90.2073 109.478 90.2793 110.334C90.3512 111.191 89.7887 111.914 88.9326 111.986C85.7721 112.338 83.7183 114.335 83.0572 116.174C82.699 117.12 82.7156 118.027 83.1753 118.525C84.1458 119.578 86.1566 118.646 88.8745 117.37C91.7586 115.94 94.9665 114.417 97.1119 116.744C98.6954 118.461 98.8517 121.187 97.5216 123.746C97.1209 124.423 96.4986 125.304 95.7785 125.968Z" fill="#131313"/>
<path d="M84.5319 113.994C83.9226 114.556 82.9643 114.517 82.4024 113.908L80.1549 111.471C79.593 110.862 79.6318 109.903 80.2411 109.341C80.8504 108.779 81.8087 108.818 82.3706 109.428L84.6182 111.865C85.2312 112.53 85.1413 113.433 84.5319 113.994Z" fill="#131313"/>
<path d="M97.6088 128.175C96.9995 128.737 96.0412 128.698 95.4793 128.089L93.7937 126.261C93.2318 125.652 93.2706 124.693 93.8799 124.131C94.4892 123.57 95.4475 123.608 96.0094 124.218L97.6951 126.046C98.257 126.655 98.2182 127.613 97.6088 128.175Z" fill="#131313"/>
<path d="M72.8263 134.424C73.0745 134.693 73.3733 134.911 73.7056 135.064C74.0379 135.218 74.3973 135.305 74.7631 135.319C75.1289 135.334 75.4941 135.277 75.8377 135.151C76.1814 135.024 76.4968 134.831 76.7659 134.583C77.0351 134.335 77.2527 134.036 77.4064 133.704C77.5601 133.372 77.6468 133.012 77.6616 132.647C77.6764 132.281 77.619 131.916 77.4927 131.572C77.3664 131.228 77.1736 130.913 76.9254 130.644C76.4242 130.1 75.7275 129.778 74.9887 129.748C74.2499 129.718 73.5294 129.983 72.9859 130.484C72.4423 130.985 72.1201 131.682 72.0902 132.421C72.0603 133.16 72.3251 133.88 72.8263 134.424Z" fill="#AECD99"/>
<path d="M77.7365 135.636C76.0193 137.219 73.302 137.163 71.6674 135.39C70.0328 133.617 70.1406 130.955 71.9132 129.321C73.6304 127.737 76.3476 127.794 77.9823 129.567C79.6169 131.339 79.4537 134.052 77.7365 135.636ZM74.0075 131.592C73.509 132.052 73.4234 132.848 73.9342 133.402C74.445 133.956 75.1904 133.986 75.7443 133.475C76.2428 133.016 76.3284 132.219 75.8176 131.665C75.3068 131.111 74.5061 131.132 74.0075 131.592Z" fill="#131313"/>
<path d="M101.853 107.657C102.354 108.201 103.051 108.523 103.789 108.553C104.528 108.583 105.249 108.318 105.792 107.816C106.336 107.315 106.658 106.619 106.688 105.88C106.718 105.141 106.453 104.42 105.952 103.877C105.45 103.333 104.754 103.011 104.015 102.981C103.276 102.951 102.556 103.216 102.012 103.717C101.469 104.219 101.146 104.915 101.116 105.654C101.087 106.393 101.351 107.113 101.853 107.657Z" fill="#AECD99"/>
<path d="M106.763 108.869C105.045 110.453 102.328 110.396 100.694 108.623C99.059 106.851 99.1668 104.189 100.939 102.554C102.657 100.971 105.374 101.027 107.008 102.8C108.643 104.573 108.48 107.285 106.763 108.869ZM103.034 104.825C102.535 105.285 102.45 106.081 102.96 106.635C103.471 107.189 104.217 107.219 104.77 106.709C105.324 106.198 105.355 105.453 104.844 104.899C104.333 104.345 103.532 104.366 103.034 104.825Z" fill="#131313"/>
<path d="M81.0906 87.2935H151.77C153.051 87.2935 154.03 88.273 154.03 89.554V133.484C154.03 134.765 153.051 135.744 151.77 135.744H81.0906C79.8096 135.744 78.83 134.765 78.83 133.484V89.554C78.83 88.3484 79.8096 87.2935 81.0906 87.2935Z" fill="#9DBE87"/>
<path d="M151.77 137.251H81.0905C78.9807 137.251 77.323 135.593 77.323 133.484V89.554C77.323 87.4442 78.9807 85.7864 81.0905 85.7864H151.77C153.88 85.7864 155.537 87.4442 155.537 89.554V133.484C155.537 135.593 153.804 137.251 151.77 137.251ZM81.0905 88.8005C80.6384 88.8005 80.337 89.1019 80.337 89.554V133.484C80.337 133.936 80.6384 134.237 81.0905 134.237H151.77C152.222 134.237 152.523 133.936 152.523 133.484V89.554C152.523 89.1019 152.222 88.8005 151.77 88.8005H81.0905Z" fill="#131313"/>
<path d="M142.276 128.963H90.5848C90.5848 125.421 87.6461 122.482 84.1046 122.482V99.7264C87.6461 99.7264 90.5848 96.7877 90.5848 93.2462H142.276C142.276 96.7877 145.214 99.7264 148.756 99.7264V122.482C145.139 122.482 142.276 125.421 142.276 128.963Z" fill="#D6F0C5"/>
<path d="M142.276 130.47H90.5848C89.7559 130.47 89.0777 129.791 89.0777 128.963C89.0777 126.25 86.8172 123.989 84.1046 123.989C83.2757 123.989 82.5976 123.311 82.5976 122.482V99.7264C82.5976 98.8975 83.2757 98.2194 84.1046 98.2194C86.8172 98.2194 89.0777 95.9588 89.0777 93.2462C89.0777 92.4173 89.7559 91.7392 90.5848 91.7392H142.276C143.104 91.7392 143.783 92.4173 143.783 93.2462C143.783 95.9588 146.043 98.2194 148.756 98.2194C149.585 98.2194 150.263 98.8975 150.263 99.7264V122.482C150.263 123.311 149.585 123.989 148.756 123.989C146.043 123.989 143.783 126.25 143.783 128.963C143.783 129.791 143.104 130.47 142.276 130.47ZM91.9411 127.456H140.844C141.447 124.291 144.009 121.729 147.173 121.126V101.083C144.009 100.48 141.447 97.9179 140.844 94.7532H91.9411C91.3383 97.9179 88.7763 100.48 85.6116 101.083V121.051C88.7763 121.729 91.3383 124.291 91.9411 127.456Z" fill="#131313"/>
<path d="M116.581 121.352C114.17 121.352 111.608 120.448 109.799 118.112C109.272 117.434 109.423 116.53 110.025 116.002C110.703 115.475 111.608 115.625 112.135 116.228C113.944 118.564 116.732 118.639 118.54 118.037C120.047 117.509 120.951 116.53 120.951 115.475C120.951 114.495 118.615 113.817 116.581 113.214C113.416 112.235 109.423 111.104 109.423 107.337C109.423 105.528 110.553 103.871 112.512 102.891C114.923 101.685 118.992 101.233 122.835 104.021C123.513 104.549 123.664 105.453 123.136 106.131C122.609 106.809 121.705 106.96 121.027 106.433C118.465 104.549 115.601 104.624 113.868 105.528C112.964 105.98 112.361 106.659 112.361 107.337C112.361 108.768 114.471 109.447 117.334 110.351C120.424 111.255 123.815 112.31 123.815 115.475C123.815 117.811 122.081 119.92 119.369 120.9C118.615 121.126 117.56 121.352 116.581 121.352Z" fill="#131313"/>
<path d="M116.43 104.926C115.601 104.926 114.923 104.247 114.923 103.419V100.103C114.923 99.2743 115.601 98.5961 116.43 98.5961C117.259 98.5961 117.937 99.2743 117.937 100.103V103.419C117.937 104.323 117.259 104.926 116.43 104.926Z" fill="#131313"/>
<path d="M116.43 124.215C115.601 124.215 114.923 123.537 114.923 122.708V120.222C114.923 119.393 115.601 118.715 116.43 118.715C117.259 118.715 117.937 119.393 117.937 120.222V122.708C117.937 123.537 117.259 124.215 116.43 124.215Z" fill="#131313"/>
<path d="M93.9756 112.009C93.9756 112.375 94.0477 112.737 94.1878 113.075C94.3279 113.414 94.5332 113.721 94.7921 113.98C95.051 114.239 95.3584 114.444 95.6966 114.584C96.0349 114.724 96.3974 114.797 96.7635 114.797C97.1297 114.797 97.4922 114.724 97.8305 114.584C98.1687 114.444 98.4761 114.239 98.7349 113.98C98.9938 113.721 99.1992 113.414 99.3393 113.075C99.4794 112.737 99.5515 112.375 99.5515 112.009C99.5515 111.269 99.2578 110.56 98.7349 110.037C98.2121 109.514 97.503 109.221 96.7635 109.221C96.0241 109.221 95.315 109.514 94.7921 110.037C94.2693 110.56 93.9756 111.269 93.9756 112.009Z" fill="#AECD99"/>
<path d="M96.7636 116.228C94.4277 116.228 92.4686 114.344 92.4686 111.933C92.4686 109.522 94.3523 107.638 96.7636 107.638C99.0994 107.638 101.059 109.522 101.059 111.933C101.059 114.344 99.0994 116.228 96.7636 116.228ZM96.7636 110.728C96.0854 110.728 95.4826 111.255 95.4826 112.009C95.4826 112.762 96.01 113.29 96.7636 113.29C97.4417 113.29 98.0445 112.762 98.0445 112.009C98.0445 111.255 97.4417 110.728 96.7636 110.728Z" fill="#131313"/>
<path d="M133.46 112.009C133.46 112.748 133.753 113.457 134.276 113.98C134.799 114.503 135.508 114.797 136.247 114.797C136.987 114.797 137.696 114.503 138.219 113.98C138.742 113.457 139.035 112.748 139.035 112.009C139.035 111.269 138.742 110.56 138.219 110.037C137.696 109.514 136.987 109.221 136.247 109.221C135.508 109.221 134.799 109.514 134.276 110.037C133.753 110.56 133.46 111.269 133.46 112.009Z" fill="#AECD99"/>
<path d="M136.247 116.228C133.912 116.228 131.952 114.344 131.952 111.933C131.952 109.522 133.836 107.638 136.247 107.638C138.583 107.638 140.542 109.522 140.542 111.933C140.542 114.344 138.583 116.228 136.247 116.228ZM136.247 110.728C135.569 110.728 134.966 111.255 134.966 112.009C134.966 112.762 135.494 113.29 136.247 113.29C137.001 113.29 137.528 112.762 137.528 112.009C137.528 111.255 136.926 110.728 136.247 110.728Z" fill="#131313"/>
<path d="M311.299 79.3495C311.072 76.8495 310.061 74.9063 308.265 73.5199C306.492 72.1108 303.958 71.4063 300.663 71.4063C298.481 71.4063 296.663 71.6904 295.208 72.2586C293.754 72.8267 292.663 73.6108 291.936 74.6108C291.208 75.5881 290.833 76.7131 290.811 77.9858C290.765 79.0313 290.97 79.9517 291.424 80.7472C291.902 81.5427 292.583 82.2472 293.47 82.8608C294.379 83.4517 295.47 83.9745 296.742 84.429C298.015 84.8836 299.447 85.2813 301.038 85.6222L307.038 86.9858C310.492 87.7358 313.538 88.7358 316.174 89.9858C318.833 91.2358 321.061 92.7245 322.856 94.4517C324.674 96.179 326.049 98.1677 326.981 100.418C327.913 102.668 328.39 105.19 328.413 107.986C328.39 112.395 327.277 116.179 325.072 119.338C322.867 122.497 319.697 124.918 315.561 126.599C311.447 128.281 306.481 129.122 300.663 129.122C294.822 129.122 289.731 128.247 285.39 126.497C281.049 124.747 277.674 122.088 275.265 118.52C272.856 114.952 271.617 110.44 271.549 104.986H287.708C287.845 107.236 288.447 109.111 289.515 110.611C290.583 112.111 292.049 113.247 293.913 114.02C295.799 114.793 297.981 115.179 300.458 115.179C302.731 115.179 304.663 114.872 306.254 114.259C307.867 113.645 309.106 112.793 309.97 111.702C310.833 110.611 311.277 109.361 311.299 107.952C311.277 106.634 310.867 105.509 310.072 104.577C309.277 103.622 308.049 102.804 306.39 102.122C304.754 101.418 302.663 100.77 300.117 100.179L292.822 98.4745C286.777 97.0881 282.015 94.8495 278.538 91.7586C275.061 88.6449 273.333 84.4404 273.356 79.1449C273.333 74.8267 274.492 71.0427 276.833 67.7927C279.174 64.5427 282.413 62.0086 286.549 60.1904C290.686 58.3722 295.402 57.4631 300.697 57.4631C306.106 57.4631 310.799 58.3836 314.777 60.2245C318.777 62.0427 321.879 64.5995 324.083 67.8949C326.288 71.1904 327.413 75.0086 327.458 79.3495H311.299ZM353.606 98.3722V128.236H336.936V58.4177H353.061V85.4858H353.64C354.822 82.2586 356.754 79.7358 359.436 77.9177C362.14 76.0995 365.447 75.1904 369.356 75.1904C373.038 75.1904 376.242 76.0086 378.97 77.6449C381.697 79.2586 383.811 81.5427 385.311 84.4972C386.833 87.4517 387.583 90.9063 387.561 94.8608V128.236H370.89V98.1336C370.913 95.2245 370.186 92.9517 368.708 91.3154C367.231 89.679 365.152 88.8608 362.47 88.8608C360.72 88.8608 359.174 89.2472 357.833 90.0199C356.515 90.7699 355.481 91.8495 354.731 93.2586C354.004 94.6677 353.629 96.3722 353.606 98.3722ZM397.967 128.236V75.8722H414.637V128.236H397.967ZM406.319 69.7699C403.978 69.7699 401.967 68.9972 400.285 67.4517C398.603 65.8836 397.762 63.9972 397.762 61.7927C397.762 59.6108 398.603 57.7472 400.285 56.2017C401.967 54.6336 403.978 53.8495 406.319 53.8495C408.683 53.8495 410.694 54.6336 412.353 56.2017C414.035 57.7472 414.876 59.6108 414.876 61.7927C414.876 63.9972 414.035 65.8836 412.353 67.4517C410.694 68.9972 408.683 69.7699 406.319 69.7699ZM425.248 147.872V75.8722H441.748V84.8381H442.26C442.941 83.2472 443.907 81.7131 445.157 80.2358C446.43 78.7586 448.044 77.554 449.998 76.6222C451.975 75.6677 454.339 75.1904 457.089 75.1904C460.725 75.1904 464.123 76.1449 467.282 78.054C470.464 79.9631 473.032 82.9063 474.987 86.8836C476.941 90.8608 477.919 95.929 477.919 102.088C477.919 108.02 476.975 112.986 475.089 116.986C473.225 120.986 470.703 123.986 467.521 125.986C464.362 127.986 460.85 128.986 456.987 128.986C454.35 128.986 452.066 128.554 450.135 127.69C448.203 126.827 446.578 125.69 445.26 124.281C443.964 122.872 442.964 121.361 442.26 119.747H441.919V147.872H425.248ZM441.578 102.054C441.578 104.872 441.953 107.327 442.703 109.418C443.475 111.509 444.578 113.134 446.01 114.293C447.464 115.429 449.203 115.997 451.225 115.997C453.271 115.997 455.01 115.429 456.441 114.293C457.873 113.134 458.953 111.509 459.68 109.418C460.43 107.327 460.805 104.872 460.805 102.054C460.805 99.2358 460.43 96.7927 459.68 94.7245C458.953 92.6563 457.873 91.054 456.441 89.9177C455.032 88.7813 453.294 88.2131 451.225 88.2131C449.18 88.2131 447.441 88.7699 446.01 89.8836C444.578 90.9972 443.475 92.5881 442.703 94.6563C441.953 96.7245 441.578 99.1904 441.578 102.054Z" fill="#FFC048"/>
<path d="M503.529 58.4177V128.236H486.654V58.4177H503.529ZM543.68 75.8722V88.1449H510.646V75.8722H543.68ZM517.566 63.3267H534.237V111.77C534.237 112.793 534.396 113.622 534.714 114.259C535.055 114.872 535.544 115.315 536.18 115.588C536.816 115.838 537.578 115.963 538.464 115.963C539.1 115.963 539.771 115.906 540.475 115.793C541.203 115.656 541.748 115.543 542.112 115.452L544.635 127.486C543.839 127.713 542.714 127.997 541.26 128.338C539.828 128.679 538.112 128.895 536.112 128.986C532.203 129.168 528.85 128.713 526.055 127.622C523.282 126.509 521.157 124.781 519.68 122.44C518.225 120.099 517.521 117.156 517.566 113.611V63.3267Z" fill="white"/>
</svg>
